<svg width="24" height="24" viewBox="0 0 24 24" fill="none" xmlns="http://www.w3.org/2000/svg">
<path d="M11.9687 21.9444C17.4776 21.9444 21.9434 17.4786 21.9434 11.9698C21.9434 6.46092 17.4776 1.99512 11.9687 1.99512C6.45988 1.99512 1.99408 6.46092 1.99408 11.9698C1.99408 17.4786 6.45988 21.9444 11.9687 21.9444Z" stroke="#FF6F91" stroke-width="1.20456"/>
<path d="M13.9637 15.9595C13.3922 16.5897 12.7064 16.9569 11.9687 16.9569C11.2311 16.9569 10.5453 16.5897 9.97382 15.9595" stroke="#FF6F91" stroke-width="1.20456" stroke-linecap="round"/>
<path d="M8.97637 11.4709C8.69067 11.1558 8.34771 10.9722 7.97891 10.9722C7.61011 10.9722 7.26715 11.1558 6.98145 11.4709" stroke="#FF6F91" stroke-width="1.20456" stroke-linecap="round"/>
<path d="M16.956 11.4709C16.6704 11.1558 16.3273 10.9722 15.9586 10.9722C15.5898 10.9722 15.2468 11.1558 14.9611 11.4709" stroke="#FF6F91" stroke-width="1.20456" stroke-linecap="round"/>
<path d="M11.9688 1.99512C10.3161 1.99512 8.97638 3.33486 8.97638 4.98751C8.97638 6.64016 10.3161 7.9799 11.9688 7.9799C12.7352 7.9799 13.4342 7.69178 13.9637 7.21795" stroke="#FF6F91" stroke-width="1.20456" stroke-linecap="round"/>
</svg>
