<svg width="24" height="24" viewBox="0 0 24 24" fill="none" xmlns="http://www.w3.org/2000/svg">
<path d="M15.9983 2V6M7.99829 2V6" stroke="#FF6F91" stroke-width="1.20763" stroke-linecap="round" stroke-linejoin="round"/>
<path d="M12.9983 4H10.9983C7.22705 4 5.34144 4 4.16986 5.17157C2.99829 6.34315 2.99829 8.22876 2.99829 12V14C2.99829 17.7712 2.99829 19.6569 4.16986 20.8284C5.34144 22 7.22705 22 10.9983 22H12.9983C16.7695 22 18.6552 22 19.8267 20.8284C20.9983 19.6569 20.9983 17.7712 20.9983 14V12C20.9983 8.22876 20.9983 6.34315 19.8267 5.17157C18.6552 4 16.7695 4 12.9983 4Z" stroke="#FF6F91" stroke-width="1.20763" stroke-linecap="round" stroke-linejoin="round"/>
<path d="M2.99829 10H20.9983" stroke="#FF6F91" stroke-width="1.20763" stroke-linecap="round" stroke-linejoin="round"/>
<path d="M11.9938 14H12.0028M11.9938 18H12.0028M15.9893 14H15.9983M7.99829 14H8.00726M7.99829 18H8.00726" stroke="#FF6F91" stroke-width="1.20763" stroke-linecap="round" stroke-linejoin="round"/>
</svg>
