<svg width="30" height="30" viewBox="0 0 30 30" fill="none" xmlns="http://www.w3.org/2000/svg">
<path d="M27.6562 4.45319H20.1562C20.0269 4.45319 19.9219 4.55819 19.9219 4.68756C19.9219 4.81694 20.0269 4.92194 20.1562 4.92194H27.6562C28.3027 4.92194 28.8281 5.44787 28.8281 6.09381C28.8281 6.73975 28.3027 7.26569 27.6562 7.26569C27.0098 7.26569 26.4844 6.73975 26.4844 6.09381C26.4844 5.96444 26.3794 5.85944 26.25 5.85944C26.1206 5.85944 26.0156 5.96444 26.0156 6.09381C26.0156 6.9985 26.7516 7.73444 27.6562 7.73444C28.5609 7.73444 29.2969 6.9985 29.2969 6.09381C29.2969 5.18912 28.5609 4.45319 27.6562 4.45319Z" fill="white"/>
<path d="M22.9688 9.60944C22.0641 9.60944 21.3281 10.3454 21.3281 11.2501C21.3281 11.3794 21.4331 11.4844 21.5625 11.4844C21.6919 11.4844 21.7969 11.3794 21.7969 11.2501C21.7969 10.6041 22.3223 10.0782 22.9688 10.0782C23.6152 10.0782 24.1406 10.6041 24.1406 11.2501C24.1406 11.896 23.6152 12.4219 22.9688 12.4219H15.4688C15.3394 12.4219 15.2344 12.5269 15.2344 12.6563C15.2344 12.7857 15.3394 12.8907 15.4688 12.8907H22.9688C23.8734 12.8907 24.6094 12.1547 24.6094 11.2501C24.6094 10.3454 23.8734 9.60944 22.9688 9.60944Z" fill="white"/>
<path d="M14.0625 9.60944C13.9331 9.60944 13.8281 9.71444 13.8281 9.84381C13.8281 9.97319 13.9331 10.0782 14.0625 10.0782H17.3438C17.4731 10.0782 17.5781 9.97319 17.5781 9.84381C17.5781 9.71444 17.4731 9.60944 17.3438 9.60944H14.0625Z" fill="white"/>
<path d="M19.6875 7.26569H22.9688C23.0981 7.26569 23.2031 7.16069 23.2031 7.03131C23.2031 6.90194 23.0981 6.79694 22.9688 6.79694H19.6875C19.5581 6.79694 19.4531 6.90194 19.4531 7.03131C19.4531 7.16069 19.5581 7.26569 19.6875 7.26569Z" fill="white"/>
<path d="M19.2228 20.1614C19.1727 20.2477 19.1267 20.3321 19.0874 20.4136C18.9589 20.6846 18.6983 20.858 18.4081 20.8641C17.5934 20.8931 16.7872 21.045 16.0152 21.315C15.3767 21.5391 14.7636 21.8456 14.1927 22.2263C14.1144 22.2788 14.0122 22.2788 13.9339 22.2272C13.8552 22.1756 13.8153 22.0819 13.8317 21.9896C13.9681 21.2325 13.9686 20.4722 13.8317 19.7297C13.752 19.3003 13.6269 18.8869 13.4628 18.4927C13.228 18.9497 12.868 19.4124 12.3397 19.8652L11.3928 20.6771L12.6463 23.5983C12.7967 23.9499 13.0916 24.2203 13.4544 24.3413C13.8172 24.4622 14.2124 24.4219 14.5405 24.233L19.4863 21.4078C19.5069 21.346 19.5331 21.286 19.5594 21.2339C19.6527 21.0361 19.6503 20.8003 19.5575 20.5786C19.4849 20.4042 19.3653 20.2575 19.2228 20.1614Z" fill="white"/>
<path d="M21.3316 19.3942C21.1676 19.0932 20.9993 18.8157 20.7499 18.7525C20.3998 18.6587 20.0379 19.0445 19.9371 19.164C19.8148 19.3014 19.6427 19.517 19.4735 19.7659C19.6966 19.9131 19.8813 20.1357 19.991 20.3973C20.1349 20.7414 20.1344 21.1154 19.9891 21.4234C19.9526 21.497 19.9249 21.5514 19.9207 21.5879C19.9291 21.6189 20.0013 21.6465 20.0449 21.6629L20.1091 21.6878C20.5943 21.8846 20.8516 22.3496 21.0785 22.7598L21.1802 22.9412C21.2852 23.1259 21.6644 23.7175 22.1248 23.6425C22.3484 23.6003 22.5532 23.372 22.6193 23.0893C22.691 22.7776 22.6202 22.4415 22.5419 22.1542C22.2804 21.1895 21.798 20.2768 21.3316 19.3942Z" fill="white"/>
<path d="M11.8016 3.89914C11.9867 2.67899 11.0788 1.56711 11.0694 1.55586C9.68845 0.176331 8.02955 1.02289 7.41736 1.41992L11.4777 4.74383C11.6455 4.47852 11.7566 4.19727 11.8016 3.89914Z" fill="white"/>
<path d="M8.38434 4.89713C7.98496 4.58963 7.57152 4.27088 7.17355 3.96338C7.17309 3.9751 7.17215 3.98682 7.17168 3.99854C7.16887 4.1251 7.16559 4.25119 7.15762 4.37494C7.12809 4.84791 7.01605 5.32322 6.83512 5.74979C6.81824 5.79197 6.8084 5.82197 6.80371 5.8426C6.80652 5.84307 6.8098 5.84307 6.81262 5.84353C6.85527 5.8501 6.8984 5.8576 6.93918 5.87025C7.2523 5.96166 7.36059 6.28697 7.4398 6.52463L7.46512 6.59869C7.6934 7.2751 8.37121 7.75885 9.05277 7.73494C9.24496 7.72557 9.51777 7.67588 9.71793 7.48838C9.87543 7.34072 9.99121 7.10729 10.0718 6.77494C10.1178 6.5851 10.1431 6.39197 10.1581 6.19838C10.0728 6.17354 9.9898 6.13744 9.91574 6.07979C9.5384 5.78588 8.98574 5.36025 8.38434 4.89713Z" fill="white"/>
<path d="M7.40895 16.7513C7.57488 16.8404 7.76145 16.854 7.93582 16.7893L8.13973 16.7124C8.2452 16.673 8.34316 16.6041 8.42285 16.5137L8.61973 16.2905C8.71066 16.1879 8.81566 16.103 8.93098 16.0374L12.6163 13.9552C12.9791 13.7504 13.116 13.2324 12.9154 12.8241L11.2447 9.42569C11.158 9.2499 10.9991 9.14069 10.8289 9.14069C10.6246 9.14069 10.4422 9.29537 10.3738 9.526C10.2027 10.1063 10.3016 10.7368 10.6386 11.2121L11.525 12.4641C11.6614 12.6568 11.7055 12.9024 11.645 13.1372C11.5883 13.3566 11.4458 13.5357 11.2546 13.6285L8.53957 14.9433C8.50816 14.9588 8.47254 14.9668 8.43738 14.9668H8.01129L7.49145 15.1622C7.12395 15.301 6.91113 15.7519 7.00816 16.1893C7.06254 16.4382 7.20926 16.643 7.40895 16.7513Z" fill="white"/>
<path d="M10.4951 8.74035L9.85427 7.96973C9.64193 8.1052 9.38271 8.18441 9.08974 8.20129C9.08365 8.25004 9.0799 8.29879 9.07193 8.34848C8.97959 8.93957 8.68849 9.44582 8.40631 9.93566C8.24271 10.2197 8.08802 10.4888 7.96849 10.7738C7.77631 11.228 7.58412 11.8008 7.80115 12.2152C7.97318 12.5424 8.33834 12.8939 8.72412 13.2657C8.96506 13.4972 9.2074 13.7386 9.43006 13.9913L11.0501 13.2066C11.1176 13.1743 11.1686 13.1063 11.1907 13.0205C11.2165 12.9211 11.1982 12.8147 11.1419 12.7355L10.2555 11.4835C9.83599 10.8919 9.71224 10.1105 9.92365 9.39379C10.0155 9.08348 10.2293 8.8491 10.4951 8.74035Z" fill="white"/>
<path d="M5.37532 1.95058C5.81642 2.32839 7.39845 3.54667 8.6697 4.52542C9.27157 4.98901 9.82563 5.41558 10.203 5.70995C10.2817 5.77089 10.3858 5.77839 10.4627 5.72776C10.7528 5.53839 10.9966 5.33448 11.1949 5.11745L6.92313 1.62104L5.52767 1.27229C5.50142 1.26573 5.47563 1.26245 5.44985 1.26245C5.3322 1.26245 5.22298 1.32808 5.16767 1.43776C5.15829 1.45604 5.14657 1.47292 5.13345 1.48839C5.09548 1.53104 5.09173 1.5587 5.09313 1.58073C5.09642 1.62151 5.12923 1.74058 5.37532 1.95058Z" fill="white"/>
<path d="M12.464 14.5801L10.1057 15.9123L7.27349 21.601C7.27302 21.6052 7.25427 21.6638 7.25333 21.668L6.4574 26.9152C6.7949 27.023 7.35271 27.1355 7.86365 26.964L8.6188 22.7954C8.66474 22.5263 8.80443 22.2788 9.01068 22.1016L12.0346 19.5095C14.3436 17.5299 13.0893 15.3882 12.464 14.5801Z" fill="white"/>
<path d="M6.03272 27.2612C5.92162 27.3057 5.81006 27.3957 5.69381 27.4904L5.58131 27.5799C4.9185 28.0913 4.04475 28.2863 3.24694 28.1035C3.2385 28.1016 3.231 28.1012 3.2235 28.1012C3.19209 28.1012 3.16537 28.1152 3.14662 28.1288C3.09366 28.1673 3.05803 28.2348 3.051 28.3093C3.02522 28.5845 3.12225 28.8807 3.28725 29.0293C3.53522 29.2534 3.91162 29.3382 4.40569 29.2801C4.55475 29.2627 4.70428 29.236 4.85287 29.2098C5.15803 29.1559 5.47397 29.0996 5.80163 29.116C5.99147 29.1259 6.17569 29.1591 6.35381 29.192C6.61022 29.2388 6.85209 29.2829 7.08272 29.2519C7.57116 29.1863 8.01647 28.7227 8.11819 28.1734C8.17069 27.8893 8.12381 27.6057 8.001 27.4224C7.18116 27.6891 6.30787 27.3765 6.03272 27.2612Z" fill="white"/>
<path d="M14.2725 5.0523C15.3028 7.11668 16.8914 7.60136 17.7202 7.70918C17.1099 7.01918 15.9408 5.5623 15.2508 3.8373C14.6925 2.43761 13.1813 2.52996 12.188 2.76761C12.2489 3.00011 12.2883 3.25043 12.2925 3.51199C12.9446 3.62777 13.7503 3.99902 14.2725 5.0523Z" fill="white"/>
</svg>
