<svg width="27" height="29" viewBox="0 0 27 29" fill="none" xmlns="http://www.w3.org/2000/svg">
<path d="M24.6094 3.65601H17.1094C16.98 3.65601 16.875 3.76101 16.875 3.89038C16.875 4.01976 16.98 4.12476 17.1094 4.12476H24.6094C25.2558 4.12476 25.7812 4.65069 25.7812 5.29663C25.7812 5.94257 25.2558 6.46851 24.6094 6.46851C23.963 6.46851 23.4375 5.94257 23.4375 5.29663C23.4375 5.16726 23.3325 5.06226 23.2031 5.06226C23.0738 5.06226 22.9688 5.16726 22.9688 5.29663C22.9688 6.20132 23.7047 6.93726 24.6094 6.93726C25.5141 6.93726 26.25 6.20132 26.25 5.29663C26.25 4.39194 25.5141 3.65601 24.6094 3.65601Z" fill="#AAB3C1"/>
<path d="M19.9219 8.81226C19.0172 8.81226 18.2812 9.54819 18.2812 10.4529C18.2812 10.5823 18.3863 10.6873 18.5156 10.6873C18.645 10.6873 18.75 10.5823 18.75 10.4529C18.75 9.80694 19.2755 9.28101 19.9219 9.28101C20.5683 9.28101 21.0938 9.80694 21.0938 10.4529C21.0938 11.0988 20.5683 11.6248 19.9219 11.6248H12.4219C12.2925 11.6248 12.1875 11.7298 12.1875 11.8591C12.1875 11.9885 12.2925 12.0935 12.4219 12.0935H19.9219C20.8266 12.0935 21.5625 11.3576 21.5625 10.4529C21.5625 9.54819 20.8266 8.81226 19.9219 8.81226Z" fill="#AAB3C1"/>
<path d="M11.0156 8.81226C10.8863 8.81226 10.7812 8.91726 10.7812 9.04663C10.7812 9.17601 10.8863 9.28101 11.0156 9.28101H14.2969C14.4262 9.28101 14.5312 9.17601 14.5312 9.04663C14.5312 8.91726 14.4262 8.81226 14.2969 8.81226H11.0156Z" fill="#AAB3C1"/>
<path d="M16.6406 6.46851H19.9219C20.0512 6.46851 20.1562 6.36351 20.1562 6.23413C20.1562 6.10476 20.0512 5.99976 19.9219 5.99976H16.6406C16.5113 5.99976 16.4062 6.10476 16.4062 6.23413C16.4062 6.36351 16.5113 6.46851 16.6406 6.46851Z" fill="#AAB3C1"/>
<path d="M16.1759 19.3642C16.1258 19.4505 16.0799 19.5349 16.0405 19.6164C15.912 19.8874 15.6514 20.0608 15.3613 20.0669C14.5466 20.096 13.7403 20.2478 12.9683 20.5178C12.3299 20.7419 11.7167 21.0485 11.1458 21.4291C11.0675 21.4816 10.9653 21.4816 10.887 21.43C10.8083 21.3785 10.7684 21.2847 10.7849 21.1924C10.9213 20.4353 10.9217 19.675 10.7849 18.9325C10.7052 18.5032 10.58 18.0897 10.4159 17.6955C10.1811 18.1525 9.8211 18.6152 9.29282 19.068L8.34595 19.8799L9.59938 22.8011C9.74985 23.1527 10.0447 23.4232 10.4075 23.5441C10.7703 23.665 11.1655 23.6247 11.4936 23.4358L16.4394 20.6107C16.46 20.5488 16.4863 20.4888 16.5125 20.4367C16.6058 20.2389 16.6034 20.0032 16.5106 19.7814C16.438 19.6071 16.3184 19.4603 16.1759 19.3642Z" fill="#AAB3C1"/>
<path d="M18.2848 18.597C18.1207 18.2961 17.9524 18.0186 17.703 17.9553C17.3529 17.8615 16.991 18.2473 16.8902 18.3668C16.7679 18.5042 16.5959 18.7198 16.4266 18.9687C16.6498 19.1159 16.8344 19.3386 16.9441 19.6001C17.088 19.9442 17.0876 20.3182 16.9423 20.6262C16.9057 20.6998 16.878 20.7542 16.8738 20.7907C16.8823 20.8217 16.9544 20.8493 16.998 20.8657L17.0623 20.8906C17.5474 21.0875 17.8048 21.5525 18.0316 21.9626L18.1334 22.144C18.2384 22.3287 18.6176 22.9203 19.0779 22.8453C19.3015 22.8031 19.5063 22.5748 19.5724 22.2921C19.6441 21.9804 19.5734 21.6443 19.4951 21.357C19.2335 20.3923 18.7512 19.4796 18.2848 18.597Z" fill="#AAB3C1"/>
<path d="M8.7547 3.10196C8.93986 1.88181 8.03189 0.769932 8.02251 0.758682C6.64158 -0.620849 4.98267 0.225714 4.37048 0.622745L8.4308 3.94665C8.59861 3.68134 8.7097 3.40009 8.7547 3.10196Z" fill="#AAB3C1"/>
<path d="M5.33746 4.09995C4.93809 3.79245 4.52465 3.4737 4.12668 3.1662C4.12621 3.17792 4.12527 3.18964 4.1248 3.20135C4.12199 3.32792 4.11871 3.45401 4.11074 3.57776C4.08121 4.05073 3.96918 4.52604 3.78824 4.9526C3.77137 4.99479 3.76152 5.02479 3.75684 5.04542C3.75965 5.04589 3.76293 5.04589 3.76574 5.04635C3.8084 5.05292 3.85152 5.06042 3.8923 5.07307C4.20543 5.16448 4.31371 5.48979 4.39293 5.72745L4.41824 5.80151C4.64652 6.47792 5.32434 6.96167 6.0059 6.93776C6.19809 6.92839 6.4709 6.8787 6.67106 6.6912C6.82856 6.54354 6.94434 6.31011 7.02496 5.97776C7.0709 5.78792 7.09621 5.59479 7.11121 5.4012C7.0259 5.37635 6.94293 5.34026 6.86887 5.28261C6.49152 4.9887 5.93887 4.56307 5.33746 4.09995Z" fill="#AAB3C1"/>
<path d="M4.36207 15.9541C4.52801 16.0432 4.71457 16.0568 4.88895 15.9921L5.09285 15.9152C5.19832 15.8758 5.29629 15.8069 5.37598 15.7165L5.57285 15.4933C5.66379 15.3907 5.76879 15.3059 5.8841 15.2402L9.56942 13.158C9.93223 12.9532 10.0691 12.4352 9.86848 12.0269L8.19785 8.62851C8.11113 8.45272 7.95223 8.34351 7.78207 8.34351C7.5777 8.34351 7.39535 8.49819 7.32691 8.72882C7.15582 9.30913 7.25473 9.9396 7.59176 10.4149L8.47816 11.6669C8.61457 11.8596 8.65863 12.1052 8.59817 12.3401C8.54145 12.5594 8.39895 12.7385 8.2077 12.8313L5.4927 14.1462C5.46129 14.1616 5.42566 14.1696 5.39051 14.1696H4.96441L4.44457 14.3651C4.07707 14.5038 3.86426 14.9548 3.96129 15.3921C4.01566 15.641 4.16238 15.8458 4.36207 15.9541Z" fill="#AAB3C1"/>
<path d="M7.44818 7.94317L6.8074 7.17255C6.59506 7.30802 6.33584 7.38723 6.04287 7.40411C6.03677 7.45286 6.03302 7.50161 6.02506 7.5513C5.93271 8.14239 5.64162 8.64864 5.35943 9.13848C5.19584 9.42255 5.04115 9.69161 4.92162 9.97661C4.72943 10.4308 4.53724 11.0036 4.75427 11.418C4.92631 11.7452 5.29146 12.0968 5.67724 12.4685C5.91818 12.7 6.16052 12.9415 6.38318 13.1941L8.00318 12.4094C8.07068 12.3771 8.12177 12.3091 8.14381 12.2233C8.16959 12.124 8.15131 12.0175 8.09506 11.9383L7.20865 10.6863C6.78912 10.0947 6.66537 9.31333 6.87677 8.59661C6.96865 8.2863 7.1824 8.05192 7.44818 7.94317Z" fill="#AAB3C1"/>
<path d="M2.32845 1.1534C2.76954 1.53121 4.35157 2.74949 5.62282 3.72824C6.2247 4.19183 6.77876 4.6184 7.1561 4.91277C7.23485 4.97371 7.33891 4.98121 7.41579 4.93058C7.70595 4.74121 7.9497 4.5373 8.14798 4.32027L3.87626 0.823865L2.48079 0.475115C2.45454 0.468552 2.42876 0.465271 2.40298 0.465271C2.28532 0.465271 2.1761 0.530896 2.12079 0.640583C2.11142 0.658865 2.0997 0.67574 2.08657 0.691208C2.0486 0.733865 2.04485 0.761521 2.04626 0.783552C2.04954 0.824333 2.08235 0.943396 2.32845 1.1534Z" fill="#AAB3C1"/>
<path d="M9.41709 13.7829L7.0588 15.1151L4.22662 20.8038C4.22615 20.8081 4.2074 20.8666 4.20646 20.8709L3.41052 26.1181C3.74802 26.2259 4.30583 26.3384 4.81677 26.1668L5.57193 21.9982C5.61787 21.7291 5.75755 21.4816 5.9638 21.3045L8.98771 18.7123C11.2968 16.7327 10.0424 14.591 9.41709 13.7829Z" fill="#AAB3C1"/>
<path d="M2.98584 26.464C2.87475 26.5085 2.76319 26.5985 2.64694 26.6932L2.53444 26.7827C1.87162 27.2941 0.997875 27.4891 0.200062 27.3063C0.191625 27.3045 0.184125 27.304 0.176625 27.304C0.145219 27.304 0.1185 27.3181 0.0997498 27.3316C0.0467811 27.3701 0.0111561 27.4376 0.00412483 27.5121C-0.0216564 27.7873 0.0753749 28.0835 0.240375 28.2321C0.488344 28.4562 0.86475 28.541 1.35881 28.4829C1.50788 28.4656 1.65741 28.4388 1.806 28.4126C2.11116 28.3587 2.42709 28.3024 2.75475 28.3188C2.94459 28.3287 3.12881 28.362 3.30694 28.3948C3.56334 28.4416 3.80522 28.4857 4.03584 28.4548C4.52428 28.3891 4.96959 27.9256 5.07131 27.3762C5.12381 27.0921 5.07694 26.8085 4.95413 26.6252C4.13428 26.892 3.261 26.5793 2.98584 26.464Z" fill="#AAB3C1"/>
<path d="M11.2256 4.25512C12.256 6.3195 13.8446 6.80418 14.6733 6.912C14.063 6.222 12.8939 4.76512 12.2039 3.04012C11.6456 1.64043 10.1344 1.73278 9.14111 1.97043C9.20205 2.20293 9.24143 2.45325 9.24565 2.71481C9.89768 2.83059 10.7035 3.20184 11.2256 4.25512Z" fill="#AAB3C1"/>
</svg>
